<?xml version="1.0" encoding="UTF-8"?>
<svg id="Calque_1" data-name="Calque 1" xmlns="http://www.w3.org/2000/svg" viewBox="0 0 524.48 147.03">
  <defs>
    <style>
      .cls-1 {
        fill: #3c71f5;
      }

      .cls-2 {
        font-family: NovaSlim, 'Nova Slim';
        font-size: 122.81px;
      }

      .cls-2, .cls-3 {
        fill: #0d1871;
      }

      .cls-4 {
        fill: #6ddaee;
      }
    </style>
  </defs>
  <text class="cls-2" transform="translate(179.03 113.67)"><tspan x="0" y="0">Goulo</tspan></text>
  <g>
    <path class="cls-4" d="m150.24,73.86h2.75c0,34.39-27.92,62.31-62.31,62.31h-2.75c0-34.39,27.92-62.31,62.31-62.31Z"/>
    <path class="cls-4" d="m83.94,10.34h2.75c0,34.39-27.92,62.31-62.31,62.31h-2.75c0-34.39,27.92-62.31,62.31-62.31Z"/>
    <path class="cls-1" d="m54.15,104.1h31.16c0,17.09-14.06,31.16-31.16,31.16s-31.16-14.06-31.16-31.16,13.6-30.74,30.41-31.15l.75,31.15Z"/>
    <path class="cls-1" d="m119.32,41.1l-31.15.75c0-.25,0-.5,0-.75,0-17.09,14.06-31.16,31.16-31.16s31.16,14.06,31.16,31.16-14.06,31.16-31.16,31.16v-31.16Z"/>
    <polygon class="cls-3" points="74.48 89.28 86.1 82.17 98.54 87.71 95.37 74.46 104.49 64.34 90.91 63.26 84.1 51.46 78.88 64.04 65.55 66.87 75.9 75.73 74.48 89.28"/>
  </g>
</svg>