<?xml version="1.0" encoding="UTF-8"?>
<svg id="Calque_1" data-name="Calque 1" xmlns="http://www.w3.org/2000/svg" viewBox="0 0 147.2 147.03">
  <defs>
    <style>
      .cls-1 {
        fill: #fff;
      }

      .cls-2 {
        fill: #3c71f5;
      }

      .cls-3 {
        fill: #6ddaee;
      }

      .cls-4 {
        fill: #0d1871;
      }
    </style>
  </defs>
  <circle class="cls-1" cx="73.6" cy="73.52" r="73.44"/>
  <g>
    <path class="cls-3" d="m127.43,74.2h2.35c0,29.41-23.88,53.3-53.3,53.3h-2.35c0-29.41,23.88-53.3,53.3-53.3Z"/>
    <path class="cls-3" d="m70.72,19.87h2.35c0,29.41-23.88,53.3-53.3,53.3h-2.35c0-29.41,23.88-53.3,53.3-53.3Z"/>
    <path class="cls-2" d="m45.24,100.07h26.65c0,14.62-12.03,26.65-26.65,26.65s-26.65-12.03-26.65-26.65,11.64-26.3,26.01-26.64l.64,26.64Z"/>
    <path class="cls-2" d="m100.98,46.19l-26.64.64c0-.21,0-.43,0-.64,0-14.62,12.03-26.65,26.65-26.65s26.65,12.03,26.65,26.65-12.03,26.65-26.65,26.65v-26.65Z"/>
    <polygon class="cls-4" points="62.62 87.39 72.56 81.31 83.21 86.05 80.5 74.72 88.3 66.06 76.68 65.14 70.86 55.05 66.39 65.81 54.99 68.23 63.84 75.8 62.62 87.39"/>
  </g>
</svg>