<?xml version="1.0" encoding="UTF-8"?>
<svg id="Calque_1" data-name="Calque 1" xmlns="http://www.w3.org/2000/svg" viewBox="0 0 524.48 147.03">
  <defs>
    <style>
      .cls-1 {
        fill: #3c71f5;
      }

      .cls-2 {
        font-family: MontserratRoman-Bold, Montserrat;
        font-size: 122.81px;
        font-variation-settings: 'wght' 700;
        font-weight: 700;
      }

      .cls-2, .cls-3 {
        fill: #0d1871;
      }

      .cls-4 {
        fill: #6ddaee;
      }
    </style>
  </defs>
  <text class="cls-2" transform="translate(145.88 113.12)"><tspan x="0" y="0">Goulo</tspan></text>
  <g>
    <path class="cls-4" d="m132.93,77.63h2.75c0,34.39-27.92,62.31-62.31,62.31h-2.75c0-34.39,27.92-62.31,62.31-62.31Z"/>
    <path class="cls-4" d="m66.63,14.11h2.75c0,34.39-27.92,62.31-62.31,62.31h-2.75c0-34.39,27.92-62.31,62.31-62.31Z"/>
    <path class="cls-1" d="m36.84,107.87h31.16c0,17.09-14.06,31.16-31.16,31.16s-31.16-14.06-31.16-31.16,13.6-30.74,30.41-31.15l.75,31.15Z"/>
    <path class="cls-1" d="m102.01,44.87l-31.15.75c0-.25,0-.5,0-.75,0-17.09,14.06-31.16,31.16-31.16s31.16,14.06,31.16,31.16-14.06,31.16-31.16,31.16v-31.16Z"/>
    <polygon class="cls-3" points="57.17 93.05 68.79 85.94 81.23 91.48 78.06 78.24 87.18 68.11 73.6 67.03 66.79 55.23 61.57 67.82 48.24 70.65 58.59 79.5 57.17 93.05"/>
  </g>
</svg>